<?xml version="1.0" encoding="UTF-8" standalone="no"?>
<!-- Created with Inkscape (http://www.inkscape.org/) -->

<svg
   width="216"
   height="384"
   viewBox="0 0 216 384"
   version="1.1"
   id="svg1"
   xmlns:xlink="http://www.w3.org/1999/xlink"
   xmlns="http://www.w3.org/2000/svg"
   xmlns:svg="http://www.w3.org/2000/svg">
  <defs
     id="defs1">
    <pattern
       xlink:href="#tiles-1"
       id="pattern57"
       patternTransform="translate(76.218461,373.73705)"
       x="0"
       y="0"
       preserveAspectRatio="none" />
    <pattern
       patternUnits="userSpaceOnUse"
       width="15.021545"
       height="25.90893"
       patternTransform="translate(76.218461,373.73705)"
       style="fill:#303442"
       id="tiles-1">
      <path
         id="path5144"
         style="opacity:1;stroke-width:4.85611;stroke-linecap:square;paint-order:stroke markers fill;stop-color:#000000"
         d="M 7.510773,0 15.021545,12.95447 7.51077,25.90893 0,12.95447 Z" />
    </pattern>
  </defs>
  <g
     id="layer1">
    <rect
       style="display:inline;fill:#42465c;fill-opacity:1;stroke-width:1.00194"
       id="rect3"
       width="216"
       height="384"
       x="0"
       y="0"
       rx="10.031982"
       ry="10.006861" />
    <g
       id="g20"
       transform="matrix(1,0,0,1.1234568,0,-1.2345712)">
      <rect
         style="display:inline;fill:#42465c;fill-opacity:1;stroke:#ffaf00;stroke-width:2.83037;stroke-dasharray:none;stroke-opacity:1"
         id="rect4"
         width="196"
         height="324"
         x="10"
         y="10"
         rx="8"
         ry="7.760479" />
      <rect
         style="display:inline;fill:url(#pattern57);fill-opacity:1;stroke:#ffaf00;stroke-width:2.83037;stroke-dasharray:none;stroke-opacity:1"
         id="rect38"
         width="196"
         height="324"
         x="10"
         y="10"
         rx="8"
         ry="7.760479" />
    </g>
    <g
       id="g21"
       transform="translate(0,3.4592041)">
      <path
         d="m 108.00261,48.56503 c -20.708317,-0.01044 -20.988917,31.093142 0,31.138821 20.82577,-0.02036 20.82056,-31.124465 0,-31.138821 z m 0,19.648558 c -2.19729,-0.07648 -3.9408,-1.881198 -3.9408,-4.078495 0,-2.197297 1.74351,-4.002015 3.9408,-4.078495 2.1973,0.07648 3.94081,1.881198 3.94081,4.078495 0,2.197297 -1.74351,4.002015 -3.94081,4.078495 z M 51.551015,64.135093 c 26.158489,39.867457 86.723805,39.887037 112.897965,0 -26.15327,-39.867453 -86.723815,-39.88703 -112.897965,0 z m 80.350915,0.12751 c 0.0356,6.321733 -2.48273,12.388445 -6.98446,16.829502 -4.49652,4.445496 -10.599,6.882416 -16.92086,6.770306 -31.700027,-0.60159 -31.414207,-46.922927 0,-47.452805 h 0.005 c 6.36245,-0.10702 12.49546,2.370617 17.00178,6.862052 4.5067,4.496524 6.99465,10.629537 6.89781,16.992642 z"
         id="path1-15"
         style="fill:#cd603b;fill-opacity:1;stroke-width:1.30512" />
      <path
         d="m 108.00261,297.37643 c -20.708317,-0.0104 -20.988917,31.09314 0,31.13882 20.82577,-0.0204 20.82056,-31.12446 0,-31.13882 z m 0,19.64856 c -2.19729,-0.0765 -3.9408,-1.8812 -3.9408,-4.07849 0,-2.1973 1.74351,-4.00202 3.9408,-4.0785 2.1973,0.0765 3.94081,1.8812 3.94081,4.0785 0,2.19729 -1.74351,4.00201 -3.94081,4.07849 z M 51.551015,312.9465 c 26.158489,39.86745 86.723805,39.88703 112.897965,0 -26.15327,-39.86746 -86.723815,-39.88703 -112.897965,0 z m 80.350915,0.12751 c 0.0356,6.32173 -2.48273,12.38844 -6.98446,16.8295 -4.49652,4.44549 -10.599,6.88241 -16.92086,6.7703 -31.700027,-0.60159 -31.414207,-46.92292 0,-47.4528 h 0.005 c 6.36245,-0.10702 12.49546,2.37062 17.00178,6.86205 4.5067,4.49652 6.99465,10.62954 6.89781,16.99264 z"
         id="path20"
         style="fill:#cd603b;fill-opacity:1;stroke-width:1.30512" />
    </g>
    <g
       id="g23"
       transform="translate(-0.383396)">
      <path
         style="opacity:1;fill:#ffaf00;fill-opacity:1;fill-rule:nonzero;stroke:#000000;stroke-width:0.621484;stroke-linecap:square;stroke-linejoin:miter;stroke-miterlimit:4;stroke-dasharray:none;stroke-dashoffset:0;stroke-opacity:1"
         d="M 457.66673,190.9683 C 438.74426,345.46636 444.32298,390.94598 312.17289,408.1558 442.07885,429.25286 443.94888,476.83206 457.66673,625.3433 475.73582,475.96573 472.21733,431.21818 603.16057,408.1558 471.19442,391.20446 475.63797,345.28434 457.66673,190.9683 Z m -287.8882,3.98242 c -10.21147,83.37451 -7.19977,107.91785 -78.514254,117.20508 70.103444,11.38498 71.111444,37.06134 78.514254,117.20508 9.75094,-80.61125 7.853,-104.75952 78.51621,-117.20508 -71.21523,-9.14775 -68.81807,-33.9288 -78.51621,-117.20508 z m 71.46963,233.99414 c -7.16004,58.46029 -5.04828,75.66965 -55.05235,82.18164 49.15491,7.98288 49.86167,25.98671 55.05235,82.18164 6.83713,-56.52274 5.5069,-73.4551 55.05431,-82.18164 -49.93447,-6.4142 -48.25419,-23.79022 -55.05431,-82.18164 z"
         id="path1-31"
         transform="matrix(0.10494847,0,0,0.07916064,134.06615,2.5768629)" />
      <g
         transform="matrix(-0.10494847,0,0,0.07916064,82.700642,1.2893524)"
         id="g22"
         style="fill:#ffaf00;fill-opacity:1">
        <path
           style="opacity:1;fill:#ffaf00;fill-opacity:1;fill-rule:nonzero;stroke:#000000;stroke-width:0.621484;stroke-linecap:square;stroke-linejoin:miter;stroke-miterlimit:4;stroke-dasharray:none;stroke-dashoffset:0;stroke-opacity:1"
           d="M 457.66673,190.9683 C 438.74426,345.46636 444.32298,390.94598 312.17289,408.1558 442.07885,429.25286 443.94888,476.83206 457.66673,625.3433 475.73582,475.96573 472.21733,431.21818 603.16057,408.1558 471.19442,391.20446 475.63797,345.28434 457.66673,190.9683 Z m -287.8882,3.98242 c -10.21147,83.37451 -7.19977,107.91785 -78.514254,117.20508 70.103444,11.38498 71.111444,37.06134 78.514254,117.20508 9.75094,-80.61125 7.853,-104.75952 78.51621,-117.20508 -71.21523,-9.14775 -68.81807,-33.9288 -78.51621,-117.20508 z m 71.46963,233.99414 c -7.16004,58.46029 -5.04828,75.66965 -55.05235,82.18164 49.15491,7.98288 49.86167,25.98671 55.05235,82.18164 6.83713,-56.52274 5.5069,-73.4551 55.05431,-82.18164 -49.93447,-6.4142 -48.25419,-23.79022 -55.05431,-82.18164 z"
           id="path21" />
      </g>
    </g>
    <g
       id="g25"
       transform="matrix(1,0,0,-1,-0.383396,385.53539)">
      <path
         style="opacity:1;fill:#ffaf00;fill-opacity:1;fill-rule:nonzero;stroke:#000000;stroke-width:0.621484;stroke-linecap:square;stroke-linejoin:miter;stroke-miterlimit:4;stroke-dasharray:none;stroke-dashoffset:0;stroke-opacity:1"
         d="M 457.66673,190.9683 C 438.74426,345.46636 444.32298,390.94598 312.17289,408.1558 442.07885,429.25286 443.94888,476.83206 457.66673,625.3433 475.73582,475.96573 472.21733,431.21818 603.16057,408.1558 471.19442,391.20446 475.63797,345.28434 457.66673,190.9683 Z m -287.8882,3.98242 c -10.21147,83.37451 -7.19977,107.91785 -78.514254,117.20508 70.103444,11.38498 71.111444,37.06134 78.514254,117.20508 9.75094,-80.61125 7.853,-104.75952 78.51621,-117.20508 -71.21523,-9.14775 -68.81807,-33.9288 -78.51621,-117.20508 z m 71.46963,233.99414 c -7.16004,58.46029 -5.04828,75.66965 -55.05235,82.18164 49.15491,7.98288 49.86167,25.98671 55.05235,82.18164 6.83713,-56.52274 5.5069,-73.4551 55.05431,-82.18164 -49.93447,-6.4142 -48.25419,-23.79022 -55.05431,-82.18164 z"
         id="path23"
         transform="matrix(0.10494847,0,0,0.07916064,134.06615,2.5768629)" />
      <g
         transform="matrix(-0.10494847,0,0,0.07916064,82.700642,1.2893524)"
         id="g24"
         style="fill:#ffaf00;fill-opacity:1">
        <path
           style="opacity:1;fill:#ffaf00;fill-opacity:1;fill-rule:nonzero;stroke:#000000;stroke-width:0.621484;stroke-linecap:square;stroke-linejoin:miter;stroke-miterlimit:4;stroke-dasharray:none;stroke-dashoffset:0;stroke-opacity:1"
           d="M 457.66673,190.9683 C 438.74426,345.46636 444.32298,390.94598 312.17289,408.1558 442.07885,429.25286 443.94888,476.83206 457.66673,625.3433 475.73582,475.96573 472.21733,431.21818 603.16057,408.1558 471.19442,391.20446 475.63797,345.28434 457.66673,190.9683 Z m -287.8882,3.98242 c -10.21147,83.37451 -7.19977,107.91785 -78.514254,117.20508 70.103444,11.38498 71.111444,37.06134 78.514254,117.20508 9.75094,-80.61125 7.853,-104.75952 78.51621,-117.20508 -71.21523,-9.14775 -68.81807,-33.9288 -78.51621,-117.20508 z m 71.46963,233.99414 c -7.16004,58.46029 -5.04828,75.66965 -55.05235,82.18164 49.15491,7.98288 49.86167,25.98671 55.05235,82.18164 6.83713,-56.52274 5.5069,-73.4551 55.05431,-82.18164 -49.93447,-6.4142 -48.25419,-23.79022 -55.05431,-82.18164 z"
           id="path24" />
      </g>
    </g>
    <g
       id="g38"
       transform="matrix(0.96781212,0,0,0.96781212,59.609352,143.60972)">
      <path
         d="M 74.969,45.945 C 77.2073,59.738 67.8401,72.73 54.051,74.968 40.258,77.2063 27.266,67.8391 25.028,54.05 22.7897,40.257 32.1569,27.265 45.946,25.027 59.739,22.7887 72.731,32.1559 74.969,45.945"
         id="path1"
         style="fill:#ffc13a;fill-opacity:1" />
      <path
         d="m 88.598,34.609 c -2.3047,2.7227 -5.3359,5.4883 -9.1953,7.5117 4.3555,-0.17578 8.3594,0.69922 11.715,1.9023 -0.46484,-3.2344 -1.3125,-6.3945 -2.5195,-9.4141 z"
         id="path2" />
      <path
         d="m 8.8828,55.973 c 0.46484,3.2305 1.3086,6.3906 2.5195,9.4102 2.3047,-2.7188 5.3359,-5.4844 9.1953,-7.5078 -0.375,0.01563 -0.74219,0.02344 -1.1094,0.02344 -3.9219,0 -7.5312,-0.82422 -10.605,-1.9258 z"
         id="path3" />
      <path
         d="m 57.875,79.41 c 0.17578,4.3516 -0.69922,8.3516 -1.9023,11.707 3.2344,-0.46484 6.3945,-1.3125 9.4141,-2.5195 -2.7227,-2.3047 -5.4844,-5.332 -7.5117,-9.1875 z"
         id="path4" />
      <path
         d="m 42.117,20.59 c -0.17188,-4.3477 0.69922,-8.3477 1.9023,-11.707 -3.2305,0.46484 -6.3906,1.3125 -9.4102,2.5195 2.7227,2.3008 5.4805,5.332 7.5078,9.1875 z"
         id="path5" />
      <path
         d="m 31.5,30.703 c 0.01953,0.01953 0.03516,0.03906 0.04687,0.0625 0.01172,0.01563 0.01953,0.02734 0.02344,0.04297 0.01172,0.01563 0.01953,0.03516 0.02344,0.05078 0.0078,0.01953 0.01563,0.03906 0.01953,0.0625 0.0078,0.01563 0.01172,0.03516 0.01172,0.05078 0.0039,0.01563 0.0078,0.03125 0.0078,0.05078 3.0703,-2.9883 6.8672,-5.2305 11.09,-6.4414 -0.01563,-0.01172 -0.03125,-0.02344 -0.04297,-0.03906 -0.0625,-0.05859 -0.11328,-0.13281 -0.14844,-0.21875 0,-0.0039 -0.0039,-0.0078 -0.0039,-0.01172 -4.0781,-11.191 -14.77,-16.426 -17.531,-17.617 -0.34766,2.9844 -1.1602,14.871 6.5,24 0,0.0039 0.0039,0.0039 0.0039,0.0078 z"
         id="path6"
         style="fill:#d27152;fill-opacity:1" />
      <path
         d="m 28.473,28.473 c -2.3242,-3.6758 -3.5664,-7.5781 -4.207,-11.086 -2.5547,2.0156 -4.8633,4.3242 -6.875,6.8789 3.5078,0.64062 7.4023,1.8828 11.082,4.207 z"
         id="path7" />
      <path
         d="m 24.285,42.52 c 0.0039,0 0.0078,0.0039 0.01172,0.0039 h 0.0039 c 0.0039,0 0.0078,0.0039 0.01172,0.0039 0.02734,0.0078 0.05078,0.01953 0.07031,0.03125 0.02734,0.01172 0.05469,0.02734 0.07422,0.04687 0.0039,0 0.0078,0.0039 0.01172,0.0078 0.02344,0.01563 0.04297,0.03125 0.05859,0.05078 0.0039,0.0039 0.0078,0.0078 0.01172,0.01172 0.01563,0.01563 0.03125,0.03516 0.04688,0.05469 1.207,-4.2266 3.4453,-8.0234 6.4258,-11.098 -0.01563,0 -0.03516,-0.0039 -0.05078,-0.0078 -0.03125,-0.0039 -0.05859,-0.01172 -0.08594,-0.02344 -0.02344,-0.0078 -0.04687,-0.01562 -0.0625,-0.02734 -0.02344,-0.01172 -0.04687,-0.02344 -0.06641,-0.04297 -0.01563,-0.0078 -0.03125,-0.01953 -0.04297,-0.03125 -9.1289,-7.6641 -21.02,-6.8516 -24.004,-6.5 1.1875,2.7578 6.4141,13.43 17.586,17.52 z"
         id="path8"
         style="fill:#cd8d00;fill-opacity:1" />
      <path
         d="m 11.402,34.613 c -1.2109,3.0195 -2.0547,6.1797 -2.5195,9.4102 3.3555,-1.207 7.3555,-2.0781 11.703,-1.9023 -3.8555,-2.0273 -6.8789,-4.7852 -9.1836,-7.5078 z"
         id="path9" />
      <path
         d="m 24.035,56.371 c 0.03125,-0.0039 0.0625,-0.0078 0.09766,-0.0078 0.07422,0 0.14844,0.01563 0.21094,0.04687 0.0039,-0.0039 0.0078,-0.0039 0.0078,0 -0.51562,-2.0547 -0.78516,-4.1992 -0.78516,-6.4102 0,-2.211 0.27344,-4.3555 0.78516,-6.4102 0,0.0039 -0.0039,0.0039 -0.0078,0 -0.0625,0.03125 -0.13672,0.04687 -0.21094,0.04687 h -0.0039 c -0.03516,0 -0.0625,-0.0039 -0.09766,-0.0078 -11.734,-2.0703 -21.621,4.5703 -24.031,6.3711 2.4102,1.7969 12.297,8.4414 24.035,6.3711 z"
         id="path10"
         style="fill:#d27152;fill-opacity:1" />
      <path
         d="m 75.961,43.625 c -0.03516,0.0039 -0.06641,0.0078 -0.09766,0.0078 -0.07813,0 -0.15234,-0.01562 -0.21875,-0.04687 0.51562,2.0547 0.78516,4.1992 0.78516,6.4102 0,2.2109 -0.27344,4.3555 -0.78516,6.4102 0,-0.0039 0.0039,-0.0039 0.0078,0 0.0625,-0.03125 0.13672,-0.04687 0.21094,-0.04687 0.03516,0 0.06641,0.0039 0.09766,0.0078 11.738,2.0742 21.625,-4.5703 24.038997,-6.3672 -2.414097,-1.8008 -12.300997,-8.4414 -24.038997,-6.375 z"
         id="path11"
         style="fill:#d27152;fill-opacity:1" />
      <path
         d="m 75.688,57.469 c -0.01953,-0.0078 -0.04297,-0.01563 -0.05859,-0.02734 -0.01172,-0.0039 -0.02734,-0.01172 -0.03906,-0.01953 -0.03125,-0.01563 -0.05859,-0.03516 -0.08203,-0.05859 -0.02344,-0.01953 -0.03906,-0.03516 -0.05859,-0.05859 -0.0078,-0.0078 -0.01563,-0.01563 -0.02344,-0.02734 -0.0039,-0.0039 -0.0078,-0.0078 -0.01172,-0.01172 -1.207,4.2266 -3.4453,8.0234 -6.4258,11.098 0.01563,0 0.03516,0.0039 0.05078,0.0078 0.0078,0 0.01563,0 0.02344,0.0039 0.01563,0 0.03125,0.0078 0.04297,0.01172 0.01953,0.0039 0.03906,0.01172 0.05469,0.01953 0.0078,0.0039 0.01563,0.0078 0.02344,0.01172 0.03516,0.01563 0.0625,0.03516 0.09375,0.05859 0.01172,0.0039 0.01953,0.01172 0.02734,0.01953 9.1289,7.6602 21.016,6.8516 24.004,6.5 -1.2031,-2.7578 -6.4336,-13.449 -17.621,-17.527 z"
         id="path12"
         style="fill:#cd8d00;fill-opacity:1" />
      <path
         d="m 88.598,65.387 c 1.207,-3.0156 2.0508,-6.1797 2.5195,-9.4141 -3.0742,1.1016 -6.6875,1.9258 -10.609,1.9258 -0.36719,0 -0.73437,-0.0078 -1.1055,-0.02344 3.8594,2.0273 6.8906,4.7891 9.1953,7.5117 z"
         id="path13" />
      <path
         d="m 68.465,69.254 c -0.01953,-0.02344 -0.03516,-0.05078 -0.04687,-0.07422 -0.0078,-0.0078 -0.01172,-0.01563 -0.01172,-0.02734 -0.01172,-0.02734 -0.02344,-0.05469 -0.02734,-0.08203 -0.01172,-0.02734 -0.01563,-0.05469 -0.01563,-0.08203 -3.0742,2.9805 -6.8711,5.2188 -11.098,6.4297 0.01563,0.0078 0.02734,0.01953 0.03906,0.03125 0.02344,0.01953 0.04687,0.04297 0.0625,0.0625 0.02344,0.02734 0.04297,0.05469 0.05859,0.08203 0.01953,0.03125 0.03516,0.0625 0.04687,0.10156 4.082,11.184 14.766,16.414 17.523,17.605 0.35156,-2.9883 1.1602,-14.875 -6.5,-24.004 -0.01172,-0.01172 -0.02344,-0.02734 -0.03125,-0.04297 z"
         id="path14"
         style="fill:#d27152;fill-opacity:1" />
      <path
         d="m 71.516,71.516 c 2.332,3.6836 3.5742,7.5898 4.2109,11.102 2.5625,-2.0195 4.8711,-4.332 6.8828,-6.8867 -3.5117,-0.64062 -7.4102,-1.8828 -11.094,-4.2148 z"
         id="path15" />
      <path
         d="m 43.625,24.035 c 0.01172,0.0625 0.01172,0.12109 0,0.18359 -0.0039,0.01953 -0.0078,0.03906 -0.01563,0.05859 -0.0039,0.02344 -0.01172,0.04687 -0.02344,0.07031 2.0547,-0.51562 4.1992,-0.78516 6.4102,-0.78516 2.207,0 4.3516,0.27344 6.4023,0.78125 -0.02734,-0.0625 -0.04297,-0.13672 -0.04297,-0.21094 v -0.0039 c 0,-0.01563 0,-0.03516 0.0039,-0.05078 0,-0.02344 0.0039,-0.05078 0.01172,-0.07031 v -0.0078 c 2.0625,-11.734 -4.5742,-21.598 -6.3711,-24 -1.8008,2.4102 -8.4414,12.293 -6.375,24.035 z"
         id="path16"
         style="fill:#cd8d00;fill-opacity:1" />
      <path
         d="m 57.469,24.309 c -0.0078,0.01953 -0.01563,0.04297 -0.02734,0.0625 -0.0039,0.01172 -0.01172,0.02734 -0.01953,0.03906 -0.01563,0.03125 -0.03516,0.05859 -0.05859,0.08203 -0.01953,0.02734 -0.04297,0.05078 -0.06641,0.06641 -0.0078,0.0078 -0.01563,0.01563 -0.02344,0.02344 4.2227,1.2109 8.0195,3.4492 11.094,6.4297 0,-0.01953 0,-0.03516 0.0078,-0.05078 0,-0.01172 0.0039,-0.02734 0.0078,-0.03906 v -0.0078 c 0.0078,-0.02734 0.01563,-0.05078 0.02734,-0.07031 0.0039,-0.01172 0.0078,-0.01953 0.01172,-0.02734 0.01172,-0.02734 0.02734,-0.05469 0.04687,-0.07422 0.0078,-0.01563 0.01953,-0.03125 0.03125,-0.04297 7.6602,-9.1289 6.8516,-21.02 6.5,-24.004 -2.7617,1.1914 -13.453,6.4258 -17.531,17.613 z"
         id="path17"
         style="fill:#d27152;fill-opacity:1" />
      <path
         d="m 69.254,31.531 c -0.02344,0.01563 -0.04687,0.03125 -0.06641,0.04297 -0.01953,0.01172 -0.04297,0.01953 -0.0625,0.02344 -0.0039,0.0039 -0.01172,0.0078 -0.01563,0.0078 -0.02734,0.01172 -0.05469,0.01563 -0.07422,0.01953 -0.01172,0.0039 -0.02734,0.0078 -0.04297,0.0078 h -0.0078 c 2.9766,3.0703 5.2188,6.8711 6.4258,11.098 h 0.0039 c 0.01172,-0.01953 0.02734,-0.03516 0.04297,-0.05469 l 0.0039,-0.0039 c 0.01562,-0.01563 0.03516,-0.03125 0.05078,-0.04687 0.02734,-0.02344 0.05469,-0.03906 0.08203,-0.05469 0.02734,-0.01953 0.05859,-0.03125 0.08594,-0.04297 0.0039,0 0.01172,-0.0039 0.01562,-0.0039 11.195,-4.0859 16.418,-14.77 17.605,-17.527 -2.9844,-0.35156 -14.875,-1.1641 -24.004,6.5 -0.01172,0.01563 -0.02734,0.02734 -0.04297,0.03516 z"
         id="path18"
         style="fill:#cd8d00;fill-opacity:1" />
      <path
         d="m 82.609,24.266 c -2.0156,-2.5586 -4.3281,-4.8672 -6.8828,-6.8828 -0.63672,3.5117 -1.8828,7.4102 -4.207,11.09 3.6797,-2.3281 7.5781,-3.5703 11.09,-4.207 z"
         id="path19" />
      <path
         d="m 57.875,20.59 c 2.0273,-3.8555 4.7852,-6.8867 7.5078,-9.1914 -3.0195,-1.2031 -6.1797,-2.0508 -9.4102,-2.5156 1.2031,3.3594 2.0781,7.3594 1.9023,11.707 z"
         id="path20-2" />
      <path
         d="m 30.703,68.496 c 0.01563,-0.01953 0.03516,-0.03125 0.05469,-0.03906 0,-0.0078 0.0039,-0.0078 0.0078,-0.0078 0.0078,-0.0078 0.01953,-0.01172 0.02734,-0.01563 0.0039,-0.0039 0.0078,-0.0078 0.01172,-0.0039 0.02344,-0.01563 0.05078,-0.02734 0.07422,-0.03516 0.02734,-0.01172 0.05859,-0.01953 0.08594,-0.02344 0.01563,-0.0039 0.03125,-0.0078 0.05078,-0.0078 -2.9766,-3.0742 -5.2188,-6.8711 -6.4258,-11.098 l -0.0078,0.0039 c -0.01563,0.02344 -0.03516,0.04687 -0.05859,0.0625 -0.04297,0.04297 -0.08984,0.07422 -0.14453,0.10156 -0.02734,0.01563 -0.05469,0.02734 -0.08203,0.03516 -11.195,4.0938 -16.414,14.77 -17.602,17.527 2.9844,0.35156 14.863,1.1641 23.992,-6.4922 0.0078,-0.0039 0.01172,-0.0078 0.01563,-0.0078 z"
         id="path21-1"
         style="fill:#cd8d00;fill-opacity:1" />
      <path
         d="m 17.387,75.73 c 2.0117,2.5508 4.3203,4.8633 6.8789,6.8789 0.64062,-3.5078 1.8828,-7.4102 4.207,-11.09 -3.6836,2.3281 -7.5781,3.5703 -11.086,4.2109 z"
         id="path22" />
      <path
         d="m 42.523,75.695 c 0,-0.0039 0.0039,-0.0078 0.0039,-0.01172 v -0.0039 c 0,-0.0039 0.0039,-0.0078 0.0039,-0.01172 v -0.0039 c 0.01172,-0.01953 0.01953,-0.04297 0.03125,-0.05859 0.0078,-0.02344 0.01953,-0.03906 0.03516,-0.05859 0.02344,-0.03906 0.05469,-0.06641 0.08203,-0.09766 0.0078,-0.0078 0.01562,-0.01563 0.02344,-0.01953 0.0078,-0.0078 0.01172,-0.01172 0.01563,-0.01172 l 0.0039,-0.0078 c -4.2227,-1.2109 -8.0195,-3.4492 -11.094,-6.4297 v 0.01953 c -0.0039,0.01172 -0.0039,0.02344 -0.0078,0.03125 0,0.02344 -0.0078,0.04297 -0.01172,0.0625 -0.0078,0.01953 -0.01563,0.03906 -0.02344,0.05859 -0.0039,0.01172 -0.0078,0.01953 -0.01172,0.02734 -0.01172,0.02734 -0.02734,0.05469 -0.04687,0.07422 -0.0078,0.01563 -0.01953,0.03125 -0.03125,0.04297 -7.6641,9.1289 -6.8516,21.016 -6.5039,24.004 2.7656,-1.1953 13.445,-6.4219 17.531,-17.605 z"
         id="path23-6"
         style="fill:#d27152;fill-opacity:1" />
      <path
         d="m 42.117,79.414 c -2.0273,3.8555 -4.7852,6.8789 -7.5117,9.1836 3.0156,1.207 6.1797,2.0547 9.4141,2.5195 -1.1992,-3.3555 -2.0742,-7.3555 -1.9023,-11.703 z"
         id="path24-8" />
      <path
         d="m 56.387,76.027 c -0.0078,-0.01172 -0.0078,-0.02344 -0.01172,-0.03516 0,-0.01172 -0.0039,-0.01953 -0.0039,-0.03125 -0.0078,-0.03516 -0.01172,-0.0625 -0.01172,-0.09766 0,-0.07813 0.01563,-0.15625 0.04687,-0.21875 -2.0508,0.51562 -4.1953,0.78516 -6.4062,0.78516 -2.2109,0 -4.3555,-0.27344 -6.4102,-0.78516 0.0078,0.01563 0.01172,0.03125 0.01953,0.04687 v 0.0039 c 0,0.0039 0.0039,0.0078 0.0039,0.01172 0.0039,0.0078 0.0039,0.01563 0.0039,0.01953 0.0078,0.01953 0.0078,0.03906 0.01172,0.05469 0.01172,0.0625 0.01172,0.125 0,0.18359 -2.0703,11.734 4.5703,21.621 6.3711,24.035 1.7891,-2.4102 8.4141,-12.262 6.3867,-23.973 z"
         id="path25"
         style="fill:#cd8d00;fill-opacity:1" />
      <path
         d="m 62.785,6.3984 c 1.168,0 2.1133,-0.94531 2.1133,-2.1133 0,-1.1641 -0.94531,-2.1133 -2.1133,-2.1133 -1.1641,0 -2.1133,0.94922 -2.1133,2.1133 0,1.168 0.94531,2.1133 2.1133,2.1133 z"
         id="path26" />
      <path
         d="m 38.477,92.996 c -1.168,0 -2.1133,0.94531 -2.1133,2.1133 0,1.16799 0.94531,2.1133 2.1133,2.1133 1.1641,0 2.1133,-0.94531 2.1133,-2.1133 0,-1.16799 -0.94922,-2.1133 -2.1133,-2.1133 z"
         id="path27" />
      <path
         d="m 95.992,59.691 c -1.168,0 -2.1133,0.94531 -2.1133,2.1133 0,1.1641 0.94531,2.1094 2.1133,2.1094 1.1641,0 2.1094,-0.94531 2.1094,-2.1094 0.0039,-1.168 -0.94141,-2.1133 -2.1094,-2.1133 z"
         id="path28" />
      <path
         d="m 5.2656,39.609 c 1.168,0 2.1133,-0.94531 2.1133,-2.1133 0,-1.1641 -0.94531,-2.1133 -2.1133,-2.1133 -1.1641,0 -2.1133,0.94531 -2.1133,2.1133 0.00391,1.168 0.94922,2.1133 2.1133,2.1133 z"
         id="path29" />
      <path
         d="m 16.324,81.102 c -1.0117,0.58203 -1.3555,1.875 -0.77344,2.8867 0.58206,1.0117 1.875,1.3555 2.8867,0.77344 1.0117,-0.58206 1.3555,-1.875 0.77344,-2.8867 -0.58203,-1.0117 -1.8789,-1.3555 -2.8867,-0.77344 z"
         id="path30" />
      <path
         d="m 7.0898,62.867 c 0.32812,-0.62109 0.34375,-1.3906 -0.035156,-2.0469 -0.58594,-1.0117 -1.875,-1.3555 -2.8867,-0.77344 -0.32422,0.18359 -0.57812,0.44531 -0.76172,0.75 -0.00391,0.0039 -0.00781,0.01172 -0.00781,0.01953 -0.37109,0.63281 -0.40234,1.4375 -0.00781,2.1172 0.58594,1.0117 1.875,1.3555 2.8867,0.77344 0.35938,-0.20312 0.63672,-0.5 0.8125,-0.83984 z"
         id="path31" />
      <path
         d="m 94.762,39.207 c 0.02734,0.02344 0.05859,0.04297 0.08594,0.0625 0.04687,0.03125 0.08984,0.0625 0.13672,0.08203 0.30078,0.16406 0.64453,0.25781 1.0078,0.25781 1.1641,0 2.1094,-0.94531 2.1094,-2.1133 0,-0.78516 -0.42969,-1.4766 -1.0703,-1.8359 -0.02734,-0.01563 -0.05469,-0.03125 -0.07813,-0.04297 -0.28906,-0.15234 -0.61328,-0.23438 -0.96094,-0.23438 -1.168,0 -2.1133,0.94531 -2.1133,2.1133 0,0.70703 0.34766,1.332 0.88281,1.7109 z"
         id="path32" />
      <path
         d="m 84.852,18.344 c 1.0117,-0.58203 1.3594,-1.8711 0.77734,-2.8867 -0.58203,-1.0117 -1.875,-1.3555 -2.8867,-0.77344 -1.0117,0.58203 -1.3594,1.875 -0.77344,2.8867 0.58203,1.0117 1.8711,1.3555 2.8828,0.77344 z"
         id="path33" />
      <path
         d="m 18.438,18.344 c 1.0117,-0.58203 1.3555,-1.8711 0.77344,-2.8867 -0.58203,-1.0117 -1.875,-1.3555 -2.8867,-0.77344 -1.0117,0.58203 -1.3555,1.875 -0.77344,2.8867 0.58203,1.0117 1.8789,1.3555 2.8867,0.77344 z"
         id="path34" />
      <path
         d="m 38.477,6.3984 c 0.78125,0 1.4609,-0.42188 1.8281,-1.0508 0.17969,-0.30859 0.28516,-0.67188 0.28516,-1.0586 0,-1.1641 -0.94531,-2.1133 -2.1133,-2.1133 -0.77344,0 -1.4453,0.41406 -1.8125,1.0273 -0.01562,0.027344 -0.03516,0.058594 -0.05078,0.082031 -0.16406,0.30078 -0.25391,0.64062 -0.25391,1.0039 0.0039,1.1641 0.94922,2.1094 2.1172,2.1094 z"
         id="path35" />
      <path
         d="m 62.785,92.898 c -0.76953,0 -1.4414,0.41406 -1.8086,1.0234 -0.01953,0.03125 -0.03516,0.05859 -0.05078,0.08203 -0.16406,0.30078 -0.25391,0.64062 -0.25391,1.0039 0,1.168 0.94531,2.1133 2.1133,2.1133 0.73047,0 1.375,-0.37109 1.7539,-0.93359 0.01953,-0.03125 0.03906,-0.05859 0.05078,-0.08203 0.19922,-0.31641 0.30859,-0.69141 0.30859,-1.0977 0,-1.1641 -0.94531,-2.1094 -2.1133,-2.1094 z"
         id="path36" />
      <path
         d="m 82.738,81.102 c -1.0117,0.58203 -1.3594,1.875 -0.77344,2.8867 0.58203,1.0117 1.8711,1.3555 2.8828,0.77344 1.0117,-0.58203 1.3594,-1.875 0.77734,-2.8867 -0.58206,-1.0117 -1.875,-1.3555 -2.8867,-0.77344 z"
         id="path37" />
      <circle
         style="fill:none;fill-opacity:1;stroke:#cd603b;stroke-width:5.16629;stroke-dasharray:none;stroke-opacity:1"
         id="path38"
         cx="50.000042"
         cy="49.999664"
         r="76.826614" />
    </g>
  </g>
</svg>
