<?xml version="1.0" encoding="UTF-8" standalone="no"?>
<svg
   width="200"
   height="200"
   viewBox="0 0 52.916664 52.916668"
   version="1.1"
   id="svg1"
   sodipodi:docname="cardicon.svg"
   inkscape:version="1.4 (86a8ad7, 2024-10-11)"
   xmlns:inkscape="http://www.inkscape.org/namespaces/inkscape"
   xmlns:sodipodi="http://sodipodi.sourceforge.net/DTD/sodipodi-0.dtd"
   xmlns="http://www.w3.org/2000/svg"
   xmlns:svg="http://www.w3.org/2000/svg">
  <sodipodi:namedview
     id="namedview1"
     pagecolor="#ffffff"
     bordercolor="#000000"
     borderopacity="0.25"
     inkscape:showpageshadow="2"
     inkscape:pageopacity="0.0"
     inkscape:pagecheckerboard="0"
     inkscape:deskcolor="#d1d1d1"
     inkscape:zoom="5.965"
     inkscape:cx="99.916178"
     inkscape:cy="100"
     inkscape:window-width="2560"
     inkscape:window-height="1411"
     inkscape:window-x="-9"
     inkscape:window-y="-9"
     inkscape:window-maximized="1"
     inkscape:current-layer="svg1" />
  <defs
     id="defs1" />
  <g
     id="layer1"
     style="fill:#ddc36f;fill-opacity:1">
    <g
       id="g1"
       transform="translate(-0.13004342,-0.16390097)"
       style="fill:#ddc36f;fill-opacity:1">
      <path
         d="M 24.824849,13.29917 H 8.710864 c -0.7652371,0 -1.3878071,0.622571 -1.3878071,1.387806 v 28.359232 c 0,0.765236 0.62257,1.387806 1.3878071,1.387806 h 16.113985 c 0.765237,0 1.387802,-0.62257 1.387802,-1.387806 V 14.686976 c 0,-0.765235 -0.622565,-1.387806 -1.387802,-1.387806 z m 0.462618,29.747038 c 0,0.255077 -0.207541,0.462618 -0.462618,0.462618 H 8.710864 c -0.2550775,0 -0.4626182,-0.207541 -0.4626182,-0.462618 V 14.686976 c 0,-0.255078 0.2075407,-0.462604 0.4626182,-0.462604 h 16.113985 c 0.255077,0 0.462618,0.207522 0.462618,0.462604 z"
         id="path1"
         style="stroke-width:0.0925203;fill:#ddc36f;fill-opacity:1" />
      <path
         d="m 9.9251928,18.995367 c -0.029859,0.173558 0.041707,0.348918 0.1840332,0.452428 0.142278,0.103415 0.331145,0.117112 0.487211,0.03507 l 0.867472,-0.456125 0.867652,0.456125 c 0.06763,0.03555 0.141567,0.05313 0.215124,0.05313 0.09593,0 0.191426,-0.02986 0.271997,-0.08834 0.142373,-0.10351 0.213797,-0.278965 0.183938,-0.452429 l -0.165691,-0.966001 0.701861,-0.684096 c 0.126022,-0.122965 0.171521,-0.306704 0.117017,-0.474166 -0.05441,-0.167464 -0.199104,-0.289496 -0.373421,-0.314847 l -0.969802,-0.140911 -0.43385,-0.878943 c -0.07792,-0.157932 -0.238679,-0.257854 -0.414749,-0.257854 -0.176071,0 -0.336976,0.100016 -0.41475,0.257854 l -0.433755,0.878943 -0.9697965,0.140909 c -0.1743171,0.02536 -0.3190127,0.147383 -0.3734216,0.314847 -0.054504,0.167463 -0.00901,0.351297 0.1170171,0.474166 l 0.701856,0.684096 -0.165691,0.966001 z m 1.0637992,-1.699503 c 0.150714,-0.02194 0.281002,-0.116572 0.34835,-0.253045 l 0.126591,-0.256466 0.126638,0.256466 c 0.06744,0.136558 0.197635,0.23121 0.34835,0.253045 l 0.28304,0.04109 -0.204839,0.199564 c -0.109103,0.106302 -0.158772,0.259429 -0.133037,0.409494 l 0.04829,0.281908 -0.253229,-0.133136 c -0.06735,-0.03545 -0.141283,-0.05311 -0.215219,-0.05311 -0.07394,0 -0.147918,0.01768 -0.215313,0.05311 l -0.253039,0.133046 0.04829,-0.281818 c 0.02559,-0.15007 -0.02417,-0.303187 -0.133037,-0.409493 l -0.204839,-0.199564 z"
         id="path2"
         style="stroke-width:0.0925203;fill:#ddc36f;fill-opacity:1" />
      <path
         d="m 20.530609,21.967493 -0.194934,1.136611 c -0.02986,0.173464 0.04171,0.348919 0.183938,0.452428 0.08067,0.05858 0.176071,0.08834 0.271998,0.08834 0.07356,0 0.147586,-0.01754 0.215218,-0.05313 l 1.02068,-0.536616 1.020684,0.536616 c 0.15607,0.08199 0.344748,0.0682 0.487216,-0.03507 0.142468,-0.103415 0.213891,-0.27887 0.184033,-0.452429 l -0.194839,-1.136611 0.825836,-0.80493 c 0.126022,-0.122989 0.171521,-0.30669 0.117017,-0.474164 -0.05441,-0.167444 -0.199105,-0.289485 -0.373422,-0.314841 l -1.141237,-0.165784 -0.510434,-1.034191 c -0.07792,-0.157919 -0.238679,-0.257874 -0.41475,-0.257874 -0.176071,0 -0.336975,0.100003 -0.41475,0.257874 l -0.510434,1.034191 -1.141237,0.165787 c -0.174317,0.02512 -0.319013,0.147397 -0.373422,0.314841 -0.0545,0.167445 -0.009,0.351289 0.117017,0.474164 l 0.825931,0.80493 z m 0.945464,-0.879221 c 0.150715,-0.0218 0.281002,-0.116591 0.34835,-0.25304 l 0.203181,-0.411716 0.20318,0.411716 c 0.06735,0.136544 0.197635,0.231191 0.34835,0.25304 l 0.454371,0.06597 -0.328823,0.320387 c -0.10896,0.106306 -0.158772,0.259438 -0.133036,0.409489 l 0.07754,0.452523 -0.406361,-0.213702 c -0.06744,-0.03555 -0.141378,-0.05313 -0.215313,-0.05313 -0.07394,0 -0.147919,0.01754 -0.215314,0.05313 l -0.406361,0.213607 0.07763,-0.452523 c 0.02559,-0.150051 -0.02417,-0.303183 -0.133037,-0.409489 l -0.328823,-0.320387 0.454277,-0.06597 z"
         id="path3"
         style="stroke-width:0.0925203;fill:#ddc36f;fill-opacity:1" />
      <path
         d="m 14.334895,35.655317 -1.050107,-0.152563 -0.469632,-0.951569 c -0.07792,-0.157918 -0.238727,-0.257873 -0.41475,-0.257873 -0.176071,0 -0.336975,0.09991 -0.41475,0.257873 l -0.469632,0.951569 -1.050107,0.152563 c -0.174317,0.02512 -0.319013,0.147397 -0.373421,0.314842 -0.0545,0.167445 -0.009,0.351289 0.117017,0.474168 l 0.759867,0.740716 -0.179294,1.04594 c -0.02986,0.173464 0.04171,0.348919 0.184033,0.452429 0.142279,0.10332 0.331146,0.117301 0.487212,0.03507 l 0.939175,-0.493875 0.939175,0.493875 c 0.06773,0.03555 0.141567,0.05313 0.215218,0.05313 0.09593,0 0.191332,-0.02986 0.271903,-0.08834 0.142468,-0.103462 0.213892,-0.278964 0.184033,-0.452428 l -0.179294,-1.045941 0.759868,-0.740715 c 0.126022,-0.122846 0.171521,-0.30669 0.117017,-0.474168 -0.05441,-0.16754 -0.199105,-0.289581 -0.373422,-0.314842 z m -1.323412,1.036964 c -0.109007,0.106212 -0.158772,0.259343 -0.133036,0.409395 l 0.06199,0.361857 -0.324843,-0.170905 c -0.06744,-0.03555 -0.141378,-0.05313 -0.215313,-0.05313 -0.07394,0 -0.147918,0.01754 -0.215314,0.05313 l -0.324842,0.170905 0.06199,-0.361857 c 0.02559,-0.150052 -0.02417,-0.303089 -0.133034,-0.409395 l -0.262756,-0.256167 0.363137,-0.05275 c 0.150715,-0.0218 0.281003,-0.116543 0.34835,-0.25304 l 0.162469,-0.329202 0.162468,0.329202 c 0.06735,0.136544 0.197636,0.231096 0.34835,0.25304 l 0.363137,0.05275 z"
         id="path4"
         style="stroke-width:0.0925203;fill:#ddc36f;fill-opacity:1" />
      <path
         d="M 23.572865,39.08773 22.583451,38.943935 22.140929,38.04732 c -0.07792,-0.157919 -0.238679,-0.257874 -0.41475,-0.257874 -0.176071,0 -0.336975,0.09991 -0.41475,0.257874 l -0.442523,0.896615 -0.989413,0.143795 c -0.174317,0.02512 -0.319013,0.147397 -0.373422,0.314842 -0.0545,0.167445 -0.009,0.351288 0.117018,0.474163 l 0.716013,0.69788 -0.169009,0.985437 c -0.02986,0.173559 0.04171,0.348966 0.183938,0.452523 0.142468,0.103463 0.331146,0.117302 0.487211,0.03507 l 0.885051,-0.465272 0.884865,0.465272 c 0.06773,0.03555 0.141568,0.05313 0.215219,0.05313 0.09593,0 0.191332,-0.02986 0.271902,-0.08834 0.142468,-0.103462 0.213892,-0.278869 0.184034,-0.452428 L 23.113351,40.574575 23.829369,39.8766 c 0.126022,-0.122847 0.171521,-0.30669 0.117017,-0.474164 -0.05441,-0.167539 -0.199105,-0.28958 -0.373422,-0.314842 z m -1.279558,0.994224 c -0.10896,0.106211 -0.158772,0.259343 -0.133037,0.409394 l 0.05171,0.301429 -0.270623,-0.142278 c -0.13479,-0.07085 -0.295884,-0.07085 -0.430485,0 l -0.270717,0.142278 0.05171,-0.301334 c 0.02559,-0.150052 -0.02417,-0.303183 -0.133036,-0.409489 l -0.218916,-0.213465 0.30252,-0.04408 c 0.150714,-0.0218 0.281002,-0.116591 0.348349,-0.25304 l 0.135359,-0.274225 0.135359,0.274225 c 0.06735,0.136544 0.197635,0.231191 0.34835,0.25304 l 0.302519,0.04408 -0.218915,0.213465 z"
         id="path5"
         style="stroke-width:0.0925203;fill:#ddc36f;fill-opacity:1" />
      <path
         d="m 16.681489,25.157776 c -1.780556,0.06441 -3.59571,0.899852 -5.249325,2.4158 -1.231633,1.129118 -1.9395981,2.229648 -1.9691106,2.275905 -0.137302,0.215313 -0.074315,0.500908 0.1409039,0.63839 0.2150291,0.137681 0.5010887,0.07455 0.6387597,-0.140525 0.0071,-0.0109 0.197256,-0.303278 0.54291,-0.73026 0.451148,0.460817 0.905681,0.871079 1.363195,1.229965 l -0.549758,0.808441 c -0.1437,0.211238 -0.08882,0.499056 0.12242,0.642647 0.07958,0.05412 0.170146,0.08005 0.259722,0.08005 0.148013,0 0.293467,-0.07085 0.383043,-0.202422 l 0.535691,-0.787626 c 0.397166,0.261381 0.796508,0.484529 1.19758,0.669756 l -0.293941,0.784015 c -0.08977,0.239247 0.03175,0.505903 0.270812,0.595555 0.05351,0.01991 0.108344,0.02938 0.162279,0.02938 0.187256,0 0.363706,-0.114552 0.433281,-0.300339 l 0.288775,-0.770138 c 0.535042,0.17337 1.072866,0.279154 1.612997,0.317828 v 0.854515 c 0,0.255551 0.207067,0.462618 0.462619,0.462618 0.255551,0 0.462618,-0.207067 0.462618,-0.462618 v -0.855349 c 0.334274,-0.0237 0.669201,-0.07076 1.004584,-0.145643 0.230101,-0.05133 0.454372,-0.113889 0.673178,-0.184934 l 0.308207,0.821675 c 0.06967,0.185692 0.24593,0.300244 0.433281,0.300244 0.05393,0 0.108912,-0.0095 0.162373,-0.02938 0.239153,-0.08977 0.360483,-0.356407 0.270718,-0.595646 l -0.312188,-0.832404 c 0.462618,-0.2101 0.894027,-0.454087 1.292416,-0.711572 l 0.512103,0.779204 c 0.08891,0.135169 0.236594,0.208631 0.387119,0.208631 0.08716,0 0.175312,-0.02465 0.253608,-0.07607 0.21356,-0.140335 0.27285,-0.427167 0.132562,-0.640708 l -0.527269,-0.802238 c 0.439395,-0.331145 0.825097,-0.660964 1.153636,-0.949905 0.201806,0.245362 0.402948,0.501833 0.603323,0.770877 0.09076,0.121852 0.230195,0.186261 0.371384,0.186261 0.09602,0 0.19299,-0.02986 0.275978,-0.09161 0.204839,-0.152563 0.24721,-0.442428 0.09455,-0.647367 -2.503508,-3.360614 -5.160318,-5.013954 -7.904751,-4.915046 z m 1.618363,6.507048 c -2.31347,0.51617 -4.635082,-0.408588 -6.904329,-2.74776 1.131062,-1.207485 3.018848,-2.753315 5.323806,-2.834824 1.997699,-0.07209 3.98263,0.962024 5.91547,3.073337 -0.975072,0.857296 -2.480654,2.095403 -4.335037,2.509247 z"
         id="path6"
         style="stroke-width:0.0925203;fill:#ddc36f;fill-opacity:1" />
      <path
         d="m 10.146592,27.244108 c 0.178914,0.182374 0.471765,0.185123 0.65421,0.0066 1.080364,-1.059358 2.84019,-2.387396 5.08899,-2.698172 2.541532,-0.351288 5.091857,0.699824 7.581393,3.123581 0.09,0.08754 0.206308,0.131093 0.322709,0.131093 0.120477,0 0.240812,-0.04692 0.331525,-0.139909 0.178203,-0.183085 0.174317,-0.476016 -0.009,-0.65421 -2.704646,-2.633128 -5.515507,-3.769 -8.353568,-3.37699 -2.499068,0.345364 -4.430149,1.797021 -5.610155,2.953989 -0.1824686,0.178914 -0.1853123,0.47186 -0.0062,0.65421 z"
         id="path7"
         style="stroke-width:0.0925203;fill:#ddc36f;fill-opacity:1" />
      <path
         d="m 17.091907,26.732564 c -1.895554,-0.03602 -3.412426,1.149934 -4.146298,1.859103 -0.194933,0.18773 -0.201521,0.49961 -0.01469,0.695752 1.289549,1.356257 2.663109,2.054137 4.082647,2.074308 1.77093,0.03081 3.233493,-1.020684 4.114747,-1.902493 0.190147,-0.18863 0.193464,-0.49924 0.0081,-0.69196 -1.271136,-1.323597 -2.631739,-2.008065 -4.044158,-2.034525 z m -1.720322,3.280404 c -0.491378,-0.245077 -0.978309,-0.59491 -1.458307,-1.050941 0.389868,-0.332709 0.916231,-0.708245 1.536579,-0.97091 -0.20337,0.309107 -0.32271,0.678363 -0.32271,1.075183 0,0.343137 0.08901,0.66568 0.244414,0.946573 z m 1.718194,0.09085 c -0.572052,0 -1.037429,-0.465367 -1.037429,-1.037433 0,-0.572052 0.465367,-1.037339 1.037429,-1.037339 0.572052,0 1.037339,0.465273 1.037339,1.037339 0,0.572052 -0.465273,1.037433 -1.037339,1.037433 z m 1.713664,-0.08346 c 0.158013,-0.282661 0.248868,-0.607674 0.248868,-0.953981 0,-0.34271 -0.08872,-0.664756 -0.243797,-0.945465 0.455841,0.236831 0.90661,0.563635 1.350242,0.980252 -0.474443,0.421243 -0.930663,0.715738 -1.355328,0.919194 z"
         id="path8"
         style="stroke-width:0.0925203;fill:#ddc36f;fill-opacity:1" />
      <path
         d="M 46.223682,6.3125916 H 26.594115 c -1.173342,0 -2.127782,0.9545333 -2.127782,2.1277824 V 10.8014 H 7.138294 c -1.275392,0 -2.3130055,1.037615 -2.3130055,2.313008 v 31.504459 c 0,1.275396 1.0376135,2.31301 2.3130055,2.31301 h 19.259215 c 1.275392,0 2.31301,-1.037614 2.31301,-2.31301 v -2.175798 h 17.513163 c 1.173252,0 2.127783,-0.954531 2.127783,-2.127873 V 8.440374 c 0,-1.1732491 -0.954531,-2.1277824 -2.127783,-2.1277824 z M 27.785316,44.618867 c 0,0.765237 -0.62257,1.387807 -1.387807,1.387807 H 7.138294 c -0.7652371,0 -1.3878024,-0.62257 -1.3878024,-1.387807 V 13.114315 c 0,-0.765235 0.6225653,-1.387804 1.3878024,-1.387804 h 19.259215 c 0.765237,0 1.387807,0.622569 1.387807,1.387804 z M 27.889299,11.34875 v -1.243102 c 0,-0.2040101 0.165976,-0.3699905 0.37001,-0.3699905 h 16.299119 c 0.203986,0 0.370009,0.1659804 0.370009,0.3699905 v 28.544365 c 0,0.204033 -0.165976,0.370009 -0.370009,0.370009 H 28.710519 V 13.114315 c 0,-0.707318 -0.319487,-1.341081 -0.821215,-1.765658 z m 19.536958,28.966536 c 0,0.663188 -0.539487,1.202675 -1.202579,1.202675 H 28.710514 v -1.57266 h 15.847895 c 0.71416,0 1.295188,-0.581029 1.295188,-1.295193 V 10.105555 c 0,-0.7141644 -0.581028,-1.2951912 -1.295188,-1.2951912 H 28.25929 c -0.714165,0 -1.295194,0.5810268 -1.295194,1.2951912 v 0.766253 c -0.181331,-0.04588 -0.371194,-0.07041 -0.566592,-0.07041 H 25.391536 V 8.4403706 c 0,-0.6630923 0.539487,-1.2025788 1.202579,-1.2025788 h 19.629567 c 0.663093,0 1.20258,0.5394865 1.20258,1.2025788 V 40.315192 Z"
         id="path9"
         style="stroke-width:0.0925203;fill:#ddc36f;fill-opacity:1" />
      <path
         d="m 31.077094,23.155636 c 0,3.274665 2.664124,5.938788 5.938693,5.938788 2.626189,0 4.907834,-1.68563 5.677788,-4.194408 0.06365,-0.20773 -0.02559,-0.431812 -0.214934,-0.538653 -0.189294,-0.106685 -0.427357,-0.06744 -0.572237,0.09465 -0.835277,0.93436 -2.031932,1.47033 -3.282992,1.47033 -2.427638,0 -4.402763,-1.97503 -4.402763,-4.402764 0,-1.225428 0.517467,-2.405344 1.419817,-3.237285 0.159767,-0.147293 0.195408,-0.385996 0.08578,-0.573627 -0.109718,-0.18754 -0.335269,-0.27358 -0.54189,-0.206502 -2.456692,0.795951 -4.107254,3.0664 -4.107254,5.649564 z m 2.692432,-3.824417 c -0.308728,0.683168 -0.473983,1.430362 -0.473983,2.192267 0,2.937799 2.390079,5.327873 5.327967,5.327873 0.792716,0 1.56739,-0.177635 2.270635,-0.509321 -0.92909,1.135872 -2.333082,1.827088 -3.878263,1.827088 -2.764509,0 -5.013494,-2.249075 -5.013494,-5.01358 0,-1.509933 0.667907,-2.893205 1.767233,-3.824422 z"
         id="path10"
         style="stroke-width:0.0925203;fill:#ddc36f;fill-opacity:1" />
      <path
         d="m 29.731942,13.540557 -0.165691,0.966003 c -0.02986,0.173569 0.04171,0.348895 0.184033,0.452424 0.142279,0.103443 0.331146,0.117136 0.487211,0.03526 l 0.867472,-0.456126 0.867467,0.456126 c 0.06773,0.03554 0.141663,0.0531 0.215219,0.0531 0.09593,0 0.191332,-0.02981 0.271902,-0.08836 0.142468,-0.103528 0.213892,-0.278855 0.184033,-0.452423 l -0.165738,-0.966004 0.701951,-0.684096 c 0.126022,-0.122965 0.171521,-0.306704 0.117017,-0.474166 -0.05441,-0.167464 -0.199105,-0.289495 -0.373422,-0.314847 L 31.953505,11.92654 31.51975,11.047597 c -0.07787,-0.157933 -0.238679,-0.257855 -0.41475,-0.257855 -0.17607,0 -0.336975,0.100017 -0.414749,0.257855 l -0.433755,0.878943 -0.969892,0.140908 c -0.174317,0.02536 -0.319012,0.147388 -0.373421,0.314847 -0.0545,0.167464 -0.009,0.351298 0.117017,0.474166 l 0.701951,0.684096 z m 0.898094,-0.733501 c 0.150715,-0.02194 0.281002,-0.116581 0.34835,-0.253044 l 0.126543,-0.256466 0.126544,0.256466 c 0.06735,0.136558 0.197635,0.231209 0.34835,0.253044 l 0.28304,0.04109 -0.204839,0.199564 c -0.10896,0.106311 -0.158772,0.259428 -0.133037,0.409494 l 0.04829,0.281817 -0.253039,-0.133046 c -0.06744,-0.03545 -0.141378,-0.05311 -0.215314,-0.05311 -0.07394,0 -0.147918,0.01768 -0.215313,0.05311 l -0.25304,0.133046 0.04829,-0.281817 c 0.0256,-0.15007 -0.02416,-0.303188 -0.133026,-0.409494 l -0.204839,-0.199564 z"
         id="path11"
         style="stroke-width:0.0925203;fill:#ddc36f;fill-opacity:1" />
      <path
         d="m 40.171468,17.478683 -0.194839,1.136612 c -0.02986,0.173559 0.04171,0.348967 0.184033,0.452429 0.142278,0.103462 0.330861,0.117159 0.487211,0.03507 l 1.020684,-0.536621 1.020682,0.536621 c 0.06773,0.03555 0.141662,0.05308 0.215218,0.05308 0.09593,0 0.191427,-0.02986 0.271998,-0.08834 0.142373,-0.103509 0.213796,-0.278964 0.183938,-0.452428 l -0.194934,-1.136613 0.825926,-0.804926 c 0.126022,-0.122966 0.171521,-0.306705 0.117017,-0.474167 -0.05441,-0.167464 -0.199104,-0.289495 -0.373422,-0.314846 l -1.141234,-0.165796 -0.510434,-1.034192 c -0.07792,-0.157933 -0.238679,-0.257854 -0.41475,-0.257854 -0.176071,0 -0.336975,0.100016 -0.41475,0.257854 l -0.510434,1.034192 -1.141242,0.165796 c -0.174317,0.02536 -0.319012,0.147382 -0.373421,0.314846 -0.0545,0.167464 -0.009,0.351298 0.117017,0.474167 l 0.825835,0.804926 z m 0.945559,-0.87922 c 0.150715,-0.02194 0.281002,-0.116572 0.34835,-0.253044 l 0.20318,-0.411717 0.203181,0.411717 c 0.06735,0.136557 0.197635,0.231209 0.34835,0.253044 l 0.454276,0.06597 -0.328823,0.320397 c -0.109102,0.106301 -0.158772,0.259428 -0.133036,0.409493 l 0.07763,0.452519 -0.406361,-0.213631 c -0.13479,-0.07087 -0.295789,-0.07087 -0.430579,0 l -0.406361,0.213721 0.07754,-0.452519 c 0.02559,-0.15007 -0.02417,-0.303187 -0.133036,-0.409493 l -0.328824,-0.320397 0.454372,-0.06597 z"
         id="path12"
         style="stroke-width:0.0925203;fill:#ddc36f;fill-opacity:1" />
      <path
         d="m 33.975849,31.166509 -1.050201,-0.152563 -0.469633,-0.951569 c -0.07792,-0.157919 -0.238679,-0.257874 -0.41475,-0.257874 -0.17607,0 -0.336975,0.09991 -0.414749,0.257874 l -0.469633,0.951569 -1.050107,0.152563 c -0.174317,0.02512 -0.319012,0.147397 -0.373421,0.314842 -0.0545,0.167539 -0.009,0.351288 0.117017,0.474258 l 0.759962,0.740625 -0.179388,1.045851 c -0.02986,0.173559 0.04171,0.348966 0.183938,0.452523 0.08066,0.05858 0.176071,0.08834 0.271997,0.08834 0.07356,0 0.147587,-0.01754 0.215219,-0.05313 l 0.93917,-0.49387 0.939175,0.49387 c 0.156165,0.08204 0.344843,0.0682 0.487211,-0.03507 0.142468,-0.103462 0.213892,-0.278964 0.184033,-0.452428 l -0.179293,-1.045941 0.759962,-0.740625 c 0.126022,-0.122989 0.171521,-0.30669 0.117017,-0.474258 -0.05441,-0.16754 -0.199104,-0.289581 -0.373422,-0.314842 z m -1.323502,1.036874 c -0.10896,0.106306 -0.158772,0.259438 -0.133037,0.409489 l 0.06199,0.361857 -0.324843,-0.170905 c -0.06744,-0.03554 -0.141378,-0.05313 -0.215313,-0.05313 -0.07394,0 -0.147966,0.01754 -0.215314,0.05313 l -0.324842,0.17081 0.06209,-0.361667 c 0.02559,-0.150052 -0.02417,-0.303183 -0.133036,-0.409584 l -0.262851,-0.25612 0.363137,-0.05275 c 0.150715,-0.0218 0.281003,-0.116591 0.34835,-0.25304 l 0.162469,-0.329202 0.162468,0.329202 c 0.06735,0.136544 0.197636,0.231096 0.34835,0.25304 l 0.363232,0.05275 z"
         id="path13"
         style="stroke-width:0.0925203;fill:#ddc36f;fill-opacity:1" />
      <path
         d="m 43.213726,34.599011 -0.989415,-0.143795 -0.442523,-0.896614 c -0.07792,-0.157919 -0.238679,-0.257874 -0.41475,-0.257874 -0.176071,0 -0.336975,0.100002 -0.41475,0.257874 l -0.442428,0.896614 -0.989413,0.143795 c -0.174317,0.02512 -0.319013,0.147397 -0.373422,0.314842 -0.0545,0.167445 -0.009,0.351289 0.117018,0.474169 l 0.715923,0.697974 -0.168962,0.985432 c -0.02986,0.173559 0.04171,0.348919 0.184033,0.452429 0.08057,0.05858 0.175976,0.08834 0.271903,0.08834 0.07356,0 0.147491,-0.01754 0.215218,-0.05313 l 0.884866,-0.465272 0.88505,0.465272 c 0.155881,0.08194 0.344843,0.06811 0.487213,-0.03507 0.142374,-0.103415 0.213797,-0.278964 0.183939,-0.452523 l -0.169057,-0.985338 0.716013,-0.697974 c 0.126022,-0.122847 0.171521,-0.30669 0.117018,-0.474169 -0.05441,-0.167539 -0.199105,-0.28958 -0.373422,-0.314841 z m -1.27956,0.994224 c -0.109102,0.106211 -0.158772,0.259438 -0.133037,0.409489 l 0.05171,0.301335 -0.270718,-0.142279 c -0.1346,-0.07086 -0.295694,-0.07086 -0.430484,0 l -0.270623,0.142279 0.05171,-0.30143 c 0.02559,-0.150051 -0.02417,-0.303088 -0.133036,-0.409394 l -0.218821,-0.213465 0.302519,-0.04408 c 0.150715,-0.0218 0.281003,-0.11659 0.34835,-0.253039 l 0.135264,-0.27413 0.135359,0.27413 c 0.06735,0.136543 0.197635,0.23119 0.34835,0.253039 l 0.302519,0.04408 -0.218915,0.213465 z"
         id="path14"
         style="stroke-width:0.0925203;fill:#ddc36f;fill-opacity:1" />
    </g>
  </g>
</svg>
